<?xml version="1.0" encoding="utf-8"?>
<svg viewBox="52.874 24.062 255.344 255.344" xmlns="http://www.w3.org/2000/svg">
  <ellipse style="fill: rgb(255, 255, 255); stroke: rgba(0, 0, 0, 0);" cx="180.546" cy="151.734" rx="127.672" ry="127.672" transform="matrix(0.9999999999999999, 0, 0, 0.9999999999999999, 0, 0)"/>
  <path d="M 180.486 271.27 C 246.846 271.27 300.971 217.285 300.971 150.635 C 300.971 83.985 246.846 30 180.486 30 C 114.125 30 60 84.192 60 150.635 C 60 217.078 114.125 271.27 180.486 271.27 Z M 180.486 47.026 C 237.514 47.026 283.966 93.536 283.966 150.635 C 283.966 207.734 237.514 254.244 180.486 254.244 C 123.457 254.244 77.005 207.734 77.005 150.635 C 77.005 93.536 123.457 47.026 180.486 47.026 Z" fill="#4A4A4A" id="path-1" transform="matrix(0.9999999999999999, 0, 0, 0.9999999999999999, 0, 0)"/>
  <path d="M 135.244 194.653 C 136.903 196.314 138.976 197.145 141.258 197.145 C 143.539 197.145 145.612 196.314 147.271 194.653 L 180.452 161.432 L 213.632 194.653 C 215.291 196.314 217.364 197.145 219.646 197.145 C 221.927 197.145 224 196.314 225.659 194.653 C 228.977 191.331 228.977 185.933 225.659 182.61 L 192.479 149.389 L 225.659 116.168 C 228.977 112.846 228.977 107.447 225.659 104.125 C 222.341 100.803 216.95 100.803 213.632 104.125 L 180.452 137.346 L 147.271 104.125 C 143.953 100.803 138.562 100.803 135.244 104.125 C 131.926 107.447 131.926 112.846 135.244 116.168 L 168.424 149.389 L 135.244 182.61 C 131.926 185.933 131.926 191.331 135.244 194.653 Z" id="path-1" style="fill: rgb(255, 61, 61);" transform="matrix(0.9999999999999999, 0, 0, 0.9999999999999999, 0, 0)"/>
</svg>